<svg xmlns="http://www.w3.org/2000/svg" xmlns:xlink="http://www.w3.org/1999/xlink" width="1920" zoomAndPan="magnify" viewBox="0 0 1440 809.999993" height="1080" preserveAspectRatio="xMidYMid meet" version="1.2"><defs/><g id="994da16a8a"><g style="fill:#ffffff;fill-opacity:1;"><g transform="translate(246.278492, 621.74225)"><path style="stroke:none" d="M 6.265625 -50.09375 C 18.785156 -50.09375 28.253906 -51.050781 34.671875 -52.96875 C 41.097656 -54.894531 45.753906 -58.664062 48.640625 -64.28125 C 51.535156 -69.90625 52.984375 -78.335938 52.984375 -89.578125 L 52.984375 -390.109375 L 139.1875 -390.109375 L 139.1875 -85.71875 C 139.1875 -63.570312 136.457031 -45.59375 131 -31.78125 C 125.539062 -17.976562 116.148438 -7.546875 102.828125 -0.484375 C 89.503906 6.578125 71.28125 10.109375 48.15625 10.109375 L 6.265625 10.109375 Z M 6.265625 -50.09375 "/></g></g><g style="fill:#ffffff;fill-opacity:1;"><g transform="translate(414.359695, 621.74225)"><path style="stroke:none" d="M 132.4375 5.78125 C 95.195312 5.78125 67.503906 -4.085938 49.359375 -23.828125 C 31.222656 -43.578125 21.515625 -74.96875 20.234375 -118 L 93.90625 -129.078125 C 94.226562 -104.347656 97.195312 -86.601562 102.8125 -75.84375 C 108.4375 -65.09375 116.867188 -59.71875 128.109375 -59.71875 C 142.554688 -59.71875 149.78125 -69.191406 149.78125 -88.140625 C 149.78125 -103.222656 146.328125 -116.222656 139.421875 -127.140625 C 132.523438 -138.054688 121.691406 -149.773438 106.921875 -162.296875 L 73.203125 -191.6875 C 56.503906 -205.8125 43.578125 -220.816406 34.421875 -236.703125 C 25.273438 -252.597656 20.703125 -271.460938 20.703125 -293.296875 C 20.703125 -326.046875 30.414062 -351.25 49.84375 -368.90625 C 69.269531 -386.570312 96 -395.40625 130.03125 -395.40625 C 166.957031 -395.40625 192.082031 -384.644531 205.40625 -363.125 C 218.726562 -341.613281 225.875 -315.445312 226.84375 -284.625 L 152.671875 -275.484375 C 152.023438 -295.710938 150.175781 -310.238281 147.125 -319.0625 C 144.082031 -327.894531 137.421875 -332.3125 127.140625 -332.3125 C 119.753906 -332.3125 114.054688 -329.179688 110.046875 -322.921875 C 106.035156 -316.660156 104.03125 -309.675781 104.03125 -301.96875 C 104.03125 -288.800781 107 -277.722656 112.9375 -268.734375 C 118.875 -259.742188 128.425781 -249.472656 141.59375 -237.921875 L 173.859375 -209.5 C 193.117188 -193.125 208.046875 -175.785156 218.640625 -157.484375 C 229.242188 -139.179688 234.546875 -117.507812 234.546875 -92.46875 C 234.546875 -74.164062 230.289062 -57.550781 221.78125 -42.625 C 213.269531 -27.695312 201.304688 -15.894531 185.890625 -7.21875 C 170.484375 1.445312 152.664062 5.78125 132.4375 5.78125 Z M 132.4375 5.78125 "/></g></g><g style="fill:#ffffff;fill-opacity:1;"><g transform="translate(658.053357, 621.74225)"><path style="stroke:none" d="M 10.59375 -390.109375 L 84.28125 -390.109375 L 126.1875 -125.21875 L 165.1875 -390.109375 L 243.21875 -390.109375 L 171.9375 0 L 80.90625 0 Z M 10.59375 -390.109375 "/></g></g><g style="fill:#ffffff;fill-opacity:1;"><g transform="translate(911.379181, 621.74225)"><path style="stroke:none" d="M 28.890625 -390.109375 L 127.625 -390.109375 C 161.34375 -390.109375 187.671875 -385.929688 206.609375 -377.578125 C 225.554688 -369.234375 238.960938 -356.148438 246.828125 -338.328125 C 254.691406 -320.503906 258.625 -296.664062 258.625 -266.8125 L 258.625 -125.21875 C 258.625 -95.039062 254.691406 -70.957031 246.828125 -52.96875 C 238.960938 -34.988281 225.632812 -21.664062 206.84375 -13 C 188.0625 -4.332031 161.976562 0 128.59375 0 L 28.890625 0 Z M 128.59375 -59.71875 C 141.113281 -59.71875 150.34375 -61.5625 156.28125 -65.25 C 162.21875 -68.945312 165.988281 -74.242188 167.59375 -81.140625 C 169.207031 -88.046875 170.015625 -98.242188 170.015625 -111.734375 L 170.015625 -281.734375 C 170.015625 -294.265625 169.128906 -303.816406 167.359375 -310.390625 C 165.585938 -316.972656 161.734375 -321.867188 155.796875 -325.078125 C 149.859375 -328.296875 140.628906 -329.90625 128.109375 -329.90625 L 115.109375 -329.90625 L 115.109375 -59.71875 Z M 128.59375 -59.71875 "/></g></g></g></svg>